HIERARCHY
ROOT Hips
{
	OFFSET 0.000000 0.000000 0.000000
	CHANNELS 6 Xposition Yposition Zposition Xrotation Yrotation Zrotation
	JOINT LeftUpLeg_virtual
	{
		OFFSET 0.000000 0.000000 0.000000
		CHANNELS 3 Xrotation Yrotation Zrotation
		JOINT LeftUpLeg
		{
			OFFSET 13.026900 -6.336304 -1.092800
			CHANNELS 3 Xrotation Yrotation Zrotation
			JOINT LeftLeg
			{
				OFFSET 0.524474 -46.096886 9.782700
				CHANNELS 3 Xrotation Yrotation Zrotation
				JOINT LeftFoot
				{
					OFFSET -0.524474 -53.427422 -12.948200
					CHANNELS 3 Xrotation Yrotation Zrotation
					JOINT LeftToeBase
					{
						OFFSET 0.192200 -14.009700 16.364100
						CHANNELS 3 Xrotation Yrotation Zrotation
						JOINT LeftToe_End
						{
							OFFSET -1.784700 -0.561700 9.474800
							CHANNELS 3 Xrotation Yrotation Zrotation
							End Site
							{
								OFFSET 0 0 0
							}
						}
					}
				}
			}
		}
	}
	JOINT RightUpLeg_virtual
	{
		OFFSET 0.000000 0.000000 0.000000
		CHANNELS 3 Xrotation Yrotation Zrotation
		JOINT RightUpLeg
		{
			OFFSET -12.883000 -6.336304 -1.092800
			CHANNELS 3 Xrotation Yrotation Zrotation
			JOINT RightLeg
			{
				OFFSET -0.524587 -46.096825 9.782800
				CHANNELS 3 Xrotation Yrotation Zrotation
				JOINT RightFoot
				{
					OFFSET 0.524587 -53.427383 -12.948300
					CHANNELS 3 Xrotation Yrotation Zrotation
					JOINT RightToeBase
					{
						OFFSET -0.192200 -14.009700 16.364100
						CHANNELS 3 Xrotation Yrotation Zrotation
						JOINT RightToe_End
						{
							OFFSET 1.784700 -0.561700 9.474800
							CHANNELS 3 Xrotation Yrotation Zrotation
							End Site
							{
								OFFSET 0 0 0
							}
						}
					}
				}
			}
		}
	}
	JOINT Spine_virtual
	{
		OFFSET 0.000000 0.000000 0.000000
		CHANNELS 3 Xrotation Yrotation Zrotation
		JOINT Spine
		{
			OFFSET 0.072000 7.257294 -0.789700
			CHANNELS 3 Xrotation Yrotation Zrotation
			JOINT Spine1
			{
				OFFSET 0.000000 12.508769 -0.658067
				CHANNELS 3 Xrotation Yrotation Zrotation
				JOINT Spine1_split
				{
					OFFSET 0.000000 12.508769 -0.658067
					CHANNELS 3 Xrotation Yrotation Zrotation
					JOINT Spine2
					{
						OFFSET 0.000000 12.508769 -0.658067
						CHANNELS 3 Xrotation Yrotation Zrotation
						JOINT Neck_virtual
						{
							OFFSET 0.000000 0.000000 0.000000
							CHANNELS 3 Xrotation Yrotation Zrotation
							JOINT Neck
							{
								OFFSET 0.000000 14.033295 7.520400
								CHANNELS 3 Xrotation Yrotation Zrotation
								JOINT Head
								{
									OFFSET 0.000000 8.198502 5.703100
									CHANNELS 3 Xrotation Yrotation Zrotation
									JOINT HeadTop_End
									{
										OFFSET 0.000000 17.760803 13.332701
										CHANNELS 3 Xrotation Yrotation Zrotation
										End Site
										{
											OFFSET 0 0 0
										}
									}
								}
							}
						}
						JOINT LeftShoulder_virtual
						{
							OFFSET 0.000000 0.000000 0.000000
							CHANNELS 3 Xrotation Yrotation Zrotation
							JOINT LeftShoulder
							{
								OFFSET 6.292450 5.785301 -0.669000
								CHANNELS 3 Xrotation Yrotation Zrotation
								JOINT LeftShoulder_split
								{
									OFFSET 6.292450 5.785301 -0.669000
									CHANNELS 3 Xrotation Yrotation Zrotation
									JOINT LeftArm
									{
										OFFSET 13.907140 -6.093903 1.965100
										CHANNELS 3 Xrotation Yrotation Zrotation
										JOINT LeftForeArm
										{
											OFFSET 34.140198 0.000000 0.000000
											CHANNELS 3 Xrotation Yrotation Zrotation
											JOINT LeftHand
											{
												OFFSET 40.960209 0.000000 0.000000
												CHANNELS 3 Xrotation Yrotation Zrotation
												End Site
												{
													OFFSET 0 0 0
												}
											}
										}
									}
								}
							}
						}
						JOINT RightShoulder_virtual
						{
							OFFSET 0.000000 0.000000 0.000000
							CHANNELS 3 Xrotation Yrotation Zrotation
							JOINT RightShoulder
							{
								OFFSET -6.292450 5.785301 -0.669000
								CHANNELS 3 Xrotation Yrotation Zrotation
								JOINT RightShoulder_split
								{
									OFFSET -6.292450 5.785301 -0.669000
									CHANNELS 3 Xrotation Yrotation Zrotation
									JOINT RightArm
									{
										OFFSET -13.907140 -6.093903 1.965100
										CHANNELS 3 Xrotation Yrotation Zrotation
										JOINT RightForeArm
										{
											OFFSET -34.140198 0.000000 0.000000
											CHANNELS 3 Xrotation Yrotation Zrotation
											JOINT RightHand
											{
												OFFSET -40.960209 0.000000 0.000000
												CHANNELS 3 Xrotation Yrotation Zrotation
												End Site
												{
													OFFSET 0 0 0
												}
											}
										}
									}
								}
							}
						}
					}
				}
			}
		}
	}
}
MOTION
Frames: 4
Frame Time: 0.03333333
-4.875813 94.625397 31.247271 0.000000 0.000000 0.000000 5.868572 -49.965439 5.565384 5.825685 7.199299 -5.959264 36.548868 2.780818 -6.907575 -32.692147 -8.537728 16.795997 -3.040113 -8.453186 -1.643645 0.000000 0.000000 0.000000 4.823217 -49.255062 4.931743 -61.142405 -1.813046 4.032662 19.669618 1.996465 -3.415723 29.263764 6.655221 10.169025 3.044427 -0.695567 1.747799 0.000000 0.000000 0.000000 3.358480 -43.781752 4.032171 14.525809 -7.626490 1.488837 5.288879 -5.816507 2.297033 -0.532716 -2.035256 0.791457 0.000000 0.000000 0.000000 -3.014471 -5.227134 1.456411 1.932299 39.579457 -10.642629 0.978006 27.018989 -6.839570 0.000000 0.000000 0.000000 -1.864639 -6.483151 1.867022 1.221156 -3.318365 -2.613104 -0.069029 2.787802 -3.230074 -0.765224 -3.880890 -28.002985 -0.703859 -26.257737 -2.126363 0.000000 0.000000 0.000000 -3.509233 -6.160074 2.494680 9.721176 -12.317345 2.585452 0.823835 4.042175 -0.641210 2.007424 5.600491 78.097066 -6.549309 11.441368 6.284892 0.000000 0.000000 0.000000 
-2.706692 95.551338 28.176361 0.000000 0.000000 0.000000 6.324875 -53.875064 5.890671 3.333011 7.250135 -7.794004 35.763178 3.272839 -6.011961 -32.373430 -9.770640 16.763550 -2.210855 -9.030616 -0.578312 0.000000 0.000000 0.000000 4.401718 -51.824644 4.843354 -59.057688 -2.730630 3.910931 22.861190 1.895440 -3.552867 26.952647 6.451014 8.683523 5.609381 -0.303852 1.961327 0.000000 0.000000 0.000000 3.256491 -47.179252 3.998709 14.592660 -6.958799 1.181103 4.449329 -5.288192 2.275199 -0.380972 -1.901561 0.648437 0.000000 0.000000 0.000000 -3.975023 -4.580146 1.466934 2.271883 39.961842 -10.993060 1.721110 26.917238 -7.689411 0.000000 0.000000 0.000000 -2.699591 -5.858300 2.035899 1.003041 -2.215992 -2.371840 1.642974 3.938974 -3.608055 -5.830757 -5.219860 -28.674548 -0.213988 -31.135387 -2.196993 0.000000 0.000000 0.000000 -4.426129 -5.672771 2.474885 10.266269 -11.384148 2.543541 0.006721 4.997114 -1.291344 3.885555 11.121750 74.637596 -5.046350 15.040766 7.802397 0.000000 0.000000 0.000000 
-0.712126 96.575447 25.169643 0.000000 0.000000 0.000000 7.435525 -57.332540 6.774355 0.474486 8.202407 -8.985782 36.615667 4.819579 -5.304913 -32.112274 -9.882568 16.320880 -1.099790 -9.606771 0.035139 0.000000 0.000000 0.000000 4.224702 -54.388195 4.938617 -57.611635 -3.177347 3.646487 26.662332 2.145049 -3.711908 26.196156 6.550461 7.917613 6.270093 -0.031765 2.196481 0.000000 0.000000 0.000000 3.156470 -50.357977 4.049157 14.996363 -6.134607 1.239668 3.756613 -4.647111 2.217603 -0.032361 -1.830186 0.841853 0.000000 0.000000 0.000000 -4.794041 -3.906604 1.456779 3.314412 40.162551 -11.762114 1.976705 26.531901 -8.359311 0.000000 0.000000 0.000000 -3.266659 -5.145612 2.075288 0.889143 -1.291436 -2.538729 3.430689 4.466904 -3.361611 -9.148422 -6.309578 -29.377094 -0.365050 -35.166697 -2.521137 0.000000 0.000000 0.000000 -5.048220 -5.030940 2.356264 10.639494 -10.161168 3.160317 -0.681109 5.355461 -1.865334 6.093872 14.540674 70.565314 -3.087017 19.735982 9.015171 0.000000 0.000000 0.000000 
1.058867 98.082047 22.274612 0.000000 0.000000 0.000000 8.396012 -60.378346 7.713227 -2.383584 9.273424 -9.714946 37.558712 7.012033 -4.518872 -31.832213 -8.444341 14.970569 2.131056 -10.073259 0.356405 0.000000 0.000000 0.000000 3.931288 -56.945585 4.923658 -56.322467 -3.201489 3.165287 29.932423 2.485131 -3.948441 26.014393 6.641268 7.532408 5.528502 0.125482 2.559019 0.000000 0.000000 0.000000 2.692480 -53.086412 3.881240 15.606567 -5.165281 1.567635 3.179445 -3.877269 2.042027 -0.024898 -2.192273 0.963027 0.000000 0.000000 0.000000 -5.386952 -3.200020 1.365187 4.953923 40.196053 -12.727834 1.972595 25.934136 -8.924500 0.000000 0.000000 0.000000 -3.608682 -4.367544 1.916401 0.858029 -0.578443 -3.193326 4.900409 4.308245 -2.708167 -10.784875 -7.433011 -29.887532 -1.254164 -38.819462 -3.148960 0.000000 0.000000 0.000000 -5.387984 -4.278458 2.079282 10.767126 -8.757820 4.306929 -1.013061 5.063127 -2.637483 7.541754 15.619681 66.192688 -0.898440 24.690213 9.684191 0.000000 0.000000 0.000000 
